<?xml version="1.0" encoding="UTF-8"?>
<svg width="56px" height="56px" viewBox="0 0 56 56" version="1.1" xmlns="http://www.w3.org/2000/svg" xmlns:xlink="http://www.w3.org/1999/xlink">
    <!-- Generator: Sketch 52.5 (67469) - http://www.bohemiancoding.com/sketch -->
    <title>AmazonSmallIcon</title>
    <desc>Created with Sketch.</desc>
    <g id="WIP" stroke="none" stroke-width="1" fill="none" fill-rule="evenodd">
        <g id="MMP-Services-DesktopV0.4" transform="translate(-290.000000, -1182.000000)" fill-rule="nonzero">
            <g id="Benefits" transform="translate(217.000000, 798.000000)">
                <g id="AmazonSmallIcon" transform="translate(74.000000, 385.000000)">
                    <circle id="Oval" stroke="#51989C" fill="#F6FAFA" cx="27" cy="27" r="27"></circle>
                    <g id="amazon-icon" transform="translate(8.000000, 11.000000)" fill="#51989C">
                        <path d="M0.0672727273,26.384 C0.179382727,26.202678 0.358765455,26.191322 0.605454545,26.35 C6.21149273,29.636678 12.3109091,31.28 18.9036364,31.28 C23.2987655,31.28 27.6378564,30.452678 31.9209091,28.798 C32.0330191,28.752678 32.1955836,28.684678 32.4086364,28.594 C32.6216555,28.503322 32.7730191,28.435322 32.8627273,28.39 C33.1990909,28.254 33.4625645,28.322 33.6531818,28.594 C33.8437655,28.866 33.78211,29.115322 33.4681818,29.342 C33.0645455,29.636678 32.5487655,29.976678 31.9209091,30.362 C29.9924018,31.518 27.8396745,32.413322 25.4627273,33.048 C23.0857464,33.682678 20.7648373,34 18.5,34 C15.0018182,34 11.69422,33.382322 8.57727273,32.147 C5.46029182,30.911678 2.66847364,29.172 0.201818182,26.928 C0.0672727273,26.814678 0,26.701322 0,26.588 C0,26.52 0.0224018182,26.452 0.0672727273,26.384 Z M10.1918182,16.694 C10.1918182,15.13 10.5730191,13.792678 11.3354545,12.682 C12.0978564,11.571322 13.1405836,10.732678 14.4636364,10.166 C15.6745455,9.644678 17.1657464,9.270678 18.9372727,9.044 C19.5427273,8.976 20.5293827,8.885322 21.8972727,8.772 L21.8972727,8.194 C21.8972727,6.743322 21.7402918,5.768678 21.4263636,5.27 C20.9554545,4.59 20.2154545,4.25 19.2063636,4.25 L18.9372727,4.25 C18.1972727,4.318 17.5581818,4.556 17.02,4.964 C16.4818182,5.372 16.13422,5.938678 15.9772727,6.664 C15.8875645,7.117322 15.6633109,7.378 15.3045455,7.446 L11.4363636,6.97 C11.0551291,6.879322 10.8645455,6.675322 10.8645455,6.358 C10.8645455,6.29 10.8757464,6.210678 10.8981818,6.12 C11.2793827,4.102678 12.2155836,2.606678 13.7068182,1.632 C15.1980191,0.657322 16.9414927,0.113322 18.9372727,0 L19.7781818,0 C22.3345455,0 24.3302918,0.668678 25.7654545,2.006 C25.9905596,2.23369943 26.1985601,2.47804304 26.3877273,2.737 C26.5783109,2.997678 26.7296745,3.23 26.8418182,3.434 C26.9539282,3.638 27.0548373,3.932678 27.1445455,4.318 C27.23422,4.703322 27.3014927,4.969678 27.3463636,5.117 C27.3912009,5.264322 27.4248373,5.581678 27.4472727,6.069 C27.4696745,6.556322 27.4809091,6.845322 27.4809091,6.936 L27.4809091,15.164 C27.4809091,15.753322 27.565,16.291678 27.7331818,16.779 C27.9013636,17.266322 28.0639282,17.617678 28.2209091,17.833 C28.3778564,18.048322 28.6357464,18.394 28.9945455,18.87 C29.1290909,19.074 29.1963636,19.255322 29.1963636,19.414 C29.1963636,19.595322 29.1066555,19.754 28.9272727,19.89 C27.0660382,21.522 26.0569473,22.406 25.9,22.542 C25.6309091,22.746 25.3057464,22.768678 24.9245455,22.61 C24.6105836,22.338 24.3359091,22.077322 24.1004545,21.828 C23.865,21.578678 23.6968182,21.397322 23.5959091,21.284 C23.495,21.170678 23.3324018,20.949678 23.1081818,20.621 C22.8839282,20.292322 22.7269473,20.071322 22.6372727,19.958 C21.3814927,21.340678 20.1481818,22.202 18.9372727,22.542 C18.1748373,22.768678 17.2330191,22.882 16.1118182,22.882 C14.3851291,22.882 12.9668182,22.343678 11.8568182,21.267 C10.7468182,20.190322 10.1918182,18.666 10.1918182,16.694 Z M15.9772727,16.014 C15.9772727,16.898 16.1959091,17.606322 16.6331818,18.139 C17.0704545,18.671678 17.6590909,18.938 18.3990909,18.938 C18.4663636,18.938 18.5616555,18.926678 18.685,18.904 C18.8083109,18.881322 18.8924018,18.87 18.9372727,18.87 C19.8790909,18.620678 20.6078564,18.008678 21.1236364,17.034 C21.3702918,16.603322 21.5552918,16.133 21.6786364,15.623 C21.8019473,15.113 21.86922,14.699322 21.8804545,14.382 C21.8916555,14.064678 21.8972727,13.543322 21.8972727,12.818 L21.8972727,11.968 C20.5966555,11.968 19.61,12.058678 18.9372727,12.24 C16.9639282,12.806678 15.9772727,14.064678 15.9772727,16.014 Z M30.1045455,26.962 C30.1493827,26.871322 30.2166555,26.780678 30.3063636,26.69 C30.8669473,26.304678 31.4051291,26.044 31.9209091,25.908 C32.7730191,25.681322 33.6027273,25.556678 34.41,25.534 C34.63422,25.511322 34.8472727,25.522678 35.0490909,25.568 C36.0581818,25.658678 36.6636364,25.828678 36.8654545,26.078 C36.9551291,26.214 37,26.418 37,26.69 L37,26.928 C37,27.721322 36.7869473,28.656322 36.3609091,29.733 C35.9348373,30.809678 35.3405836,31.676678 34.5781818,32.334 C34.4660382,32.424678 34.3651291,32.47 34.2754545,32.47 C34.2305836,32.47 34.1857464,32.458678 34.1409091,32.436 C34.0063636,32.368 33.9727273,32.243322 34.04,32.062 C34.8696745,30.09 35.2845455,28.718678 35.2845455,27.948 C35.2845455,27.698678 35.2396745,27.517322 35.15,27.404 C34.9257464,27.132 34.2978564,26.996 33.2663636,26.996 C32.8851291,26.996 32.4366555,27.018678 31.9209091,27.064 C31.3602918,27.132 30.8445455,27.2 30.3736364,27.268 C30.2390909,27.268 30.1493827,27.245322 30.1045455,27.2 C30.0596745,27.154678 30.0484736,27.109322 30.0709091,27.064 C30.0709091,27.041322 30.08211,27.007322 30.1045455,26.962 Z" id="Shape"></path>
                    </g>
                </g>
            </g>
        </g>
    </g>
</svg>